<svg xmlns="http://www.w3.org/2000/svg" viewBox="0 0 1380 680">
  <rect id="alaska" x="20" y="40" width="110" height="70" rx="8" />
  <rect id="northwest_territory" x="140" y="40" width="130" height="70" rx="8" />
  <rect id="greenland" x="280" y="20" width="130" height="80" rx="8" />
  <rect id="alberta" x="90" y="120" width="110" height="65" rx="8" />
  <rect id="ontario" x="210" y="110" width="120" height="70" rx="8" />
  <rect id="quebec" x="340" y="110" width="90" height="70" rx="8" />
  <rect id="western_united_states" x="100" y="190" width="120" height="65" rx="8" />
  <rect id="eastern_united_states" x="230" y="190" width="120" height="65" rx="8" />
  <rect id="central_america" x="170" y="265" width="110" height="65" rx="8" />
  <rect id="venezuela" x="260" y="340" width="105" height="70" rx="8" />
  <rect id="peru" x="250" y="420" width="100" height="80" rx="8" />
  <rect id="brazil" x="360" y="400" width="120" height="90" rx="8" />
  <rect id="argentina" x="270" y="510" width="110" height="90" rx="8" />
  <rect id="iceland" x="500" y="80" width="90" height="55" rx="8" />
  <rect id="scandinavia" x="600" y="70" width="100" height="70" rx="8" />
  <rect id="ukraine" x="710" y="110" width="130" height="95" rx="8" />
  <rect id="great_britain" x="510" y="150" width="100" height="65" rx="8" />
  <rect id="northern_europe" x="620" y="170" width="110" height="70" rx="8" />
  <rect id="western_europe" x="520" y="230" width="120" height="80" rx="8" />
  <rect id="southern_europe" x="650" y="240" width="120" height="80" rx="8" />
  <rect id="north_africa" x="520" y="330" width="145" height="80" rx="8" />
  <rect id="egypt" x="675" y="330" width="95" height="70" rx="8" />
  <rect id="east_africa" x="730" y="410" width="115" height="100" rx="8" />
  <rect id="congo" x="620" y="430" width="100" height="85" rx="8" />
  <rect id="south_africa" x="620" y="530" width="120" height="90" rx="8" />
  <rect id="madagascar" x="760" y="540" width="80" height="90" rx="8" />
  <rect id="ural" x="860" y="80" width="100" height="90" rx="8" />
  <rect id="siberia" x="970" y="70" width="130" height="100" rx="8" />
  <rect id="yakutsk" x="1110" y="50" width="100" height="90" rx="8" />
  <rect id="kamchatka" x="1220" y="70" width="120" height="95" rx="8" />
  <rect id="irkutsk" x="1090" y="160" width="105" height="85" rx="8" />
  <rect id="mongolia" x="980" y="180" width="120" height="90" rx="8" />
  <rect id="japan" x="1240" y="190" width="80" height="85" rx="8" />
  <rect id="afghanistan" x="850" y="190" width="115" height="90" rx="8" />
  <rect id="middle_east" x="820" y="300" width="120" height="90" rx="8" />
  <rect id="india" x="940" y="290" width="105" height="90" rx="8" />
  <rect id="siam" x="1045" y="305" width="95" height="85" rx="8" />
  <rect id="china" x="950" y="220" width="145" height="90" rx="8" />
  <rect id="indonesia" x="1060" y="420" width="120" height="75" rx="8" />
  <rect id="new_guinea" x="1185" y="430" width="120" height="75" rx="8" />
  <rect id="western_australia" x="1080" y="510" width="120" height="85" rx="8" />
  <rect id="eastern_australia" x="1210" y="520" width="120" height="85" rx="8" />
</svg>
